<?xml version="1.0" encoding="UTF-8"?>
<svg id="Layer_1" data-name="Layer 1" xmlns="http://www.w3.org/2000/svg" viewBox="0 0 214.6 190.1">
  <defs>
    <style>
      .cls-1 {
        stroke-width: 5px;
      }

      .cls-1, .cls-2 {
        fill: none;
        stroke: #a63841;
        stroke-linecap: round;
        stroke-linejoin: round;
      }

      .cls-2 {
        stroke-width: 18px;
      }
    </style>
  </defs>
  <path class="cls-2" d="m108.4,92.51l-1.11,1.28L9,181.1h196.6l-97.19-88.6.68-17.87c2.08-.12,4.85-.48,7.91-1.53,11.27-3.87,22.12-15.49,22.72-29.62.74-17.53-14.46-35.16-34.21-34.47-18.35.65-33.13,16.85-31.91,35.74"/>
  <path class="cls-1" d="m101.35,157.4s-.03.04-.04.05c-5.57,7.53-15.39,9.22-21.68,4.95-4.66-3.17-7.29-9.55-5.62-15.57,1.9-6.82,8.7-10.96,15.19-10.47,6.71.51,10.56,5.78,11.2,6.72.02.04.05.06.08.1l15.75,17.85s.05.05.07.08c.84.78,5.66,5.06,12.16,4.18,6.85-.93,12.96-7.24,12.64-15-.34-8-7.35-13.74-14.49-13.91-5.38-.14-10.54,2.89-13.48,7.84"/>
</svg>