<?xml version="1.0" encoding="UTF-8"?>
<svg id="Layer_1" data-name="Layer 1" xmlns="http://www.w3.org/2000/svg" viewBox="0 0 28 28">
  <defs>
    <style>
      .cls-1 {
        fill: #a63841;
      }
    </style>
  </defs>
  <g id="Instagram">
    <path class="cls-1" d="m21,28H7c-3.86,0-7-3.14-7-7V7C0,3.14,3.14,0,7,0h14c3.86,0,7,3.14,7,7v14c0,3.86-3.14,7-7,7ZM7,1C3.69,1,1,3.69,1,7v14c0,3.31,2.69,6,6,6h14c3.31,0,6-2.69,6-6V7c0-3.31-2.69-6-6-6H7Z"/>
    <path class="cls-1" d="m18,24h-8c-3.31,0-6-2.69-6-6v-8c0-3.31,2.69-6,6-6h8c3.31,0,6,2.69,6,6v8c0,3.31-2.69,6-6,6ZM10,6c-2.21,0-4,1.79-4,4v8c0,2.21,1.79,4,4,4h8c2.21,0,4-1.79,4-4v-8c0-2.21-1.79-4-4-4h-8Z"/>
    <path class="cls-1" d="m19.5,9.75c-.69,0-1.25-.56-1.25-1.25s.56-1.25,1.25-1.25,1.25.56,1.25,1.25-.56,1.25-1.25,1.25Z"/>
    <path class="cls-1" d="m14,19c-2.76,0-5-2.24-5-5s2.24-5,5-5,5,2.24,5,5-2.24,5-5,5Zm0-8c-1.65,0-3,1.35-3,3s1.35,3,3,3,3-1.35,3-3-1.35-3-3-3Z"/>
  </g>
</svg>